<svg xmlns="http://www.w3.org/2000/svg" width="512" height="512" viewBox="0 0 512 512">
	<style>
        path {
            fill: #000;
        }
        @media (prefers-color-scheme: dark) {
            path {
                fill: #fff;
            }
        }
    </style>
<path fill-rule="evenodd" d="M492,50V21H20v29h89v161.173L30.668,260.54c-4.672,2.944-6.072,9.119-3.128,13.792c1.901,3.017,5.149,4.669,8.47,4.669
	c1.822,0,3.666-0.498,5.322-1.541L109,234.813V303H40c-7.732,0-14,9.71-14,22s6.268,22,14,22h69v40.909
	c-22.483,9.263-38.356,31.402-38.356,57.188c0,34.094,27.737,61.831,61.83,61.831c34.094,0,61.831-27.737,61.831-61.831
	c0-25.382-15.379-47.232-37.305-56.745V347h67c7.732,0,14-9.71,14-22s-6.268-22-14-22h-67v-98.438l51.7-32.583l-15.807,25.26
	c-1.466,2.341-0.755,5.426,1.586,6.891c0.825,0.516,1.741,0.762,2.647,0.762c1.666,0,3.295-0.832,4.244-2.348l27.252-43.551
	c0.829-0.906,1.469-1.941,1.91-3.053l0.207-0.331c0.84-1.342,0.943-2.921,0.457-4.306c-0.143-1.511-0.623-3.013-1.487-4.385
	c-1.1-1.745-2.649-3.032-4.403-3.808c-0.939-0.639-2.098-0.94-3.298-0.82c-1.595-0.123-3.224,0.135-4.754,0.805l-50.629,8.99
	c-2.72,0.483-4.532,3.078-4.049,5.797c0.431,2.423,2.538,4.127,4.917,4.127c0.29,0,0.584-0.025,0.88-0.078l26.118-4.638L157,180.922
	V50h198v253h-69c-7.732,0-14,9.71-14,22s6.268,22,14,22h69v40.384c-22.732,9.146-38.828,31.41-38.828,57.376
	c0,34.093,27.736,61.83,61.829,61.83c34.094,0,61.831-27.737,61.831-61.83c0-25.199-15.16-46.91-36.832-56.532V347h67
	c7.732,0,14-9.71,14-22s-6.268-22-14-22h-67V50H492z"/>
</svg>
