<svg xmlns="http://www.w3.org/2000/svg" width="512" height="512" viewBox="0 0 512 512">
<style>
        path {
            fill: #000;
        }
        @media (prefers-color-scheme: dark) {
            path {
                fill: #fff;
            }
        }
    </style>
<g>
	<!-- <path fill-rule="evenodd" clip-rule="evenodd" fill="#FFFFFF" d="M112.922,102.176c0.078,8.356,2.935,22.752,8.945,36.421
		c6.496,14.773,15.77,27.45,29.427,36.454c21.276,14.029,45.459,11.602,62.479-6.406c10.826-11.456,16.257-25.538,18.514-40.91
		c3.158-21.507-0.171-42.117-9.653-61.609c-7.999-16.443-19.394-29.849-36.499-37.466c-12.19-5.428-24.624-5.834-36.994-0.576
		c-12.919,5.489-21.515,15.457-27.552,27.763C115.455,68.349,112.894,81.706,112.922,102.176z"/> -->
	<path fill-rule="evenodd" clip-rule="evenodd" d="M150.312,476.033c-4.935-0.689-9.929-1.096-14.792-2.124
		c-12.659-2.675-23.198-9.29-31.969-18.6c-21.206-22.513-25.302-49.039-17.433-78.021c6.555-24.144,20.408-43.854,38.895-60.237
		c14.098-12.492,26.276-26.535,37.312-41.698c10.577-14.534,21.051-29.152,32.008-43.397c7.116-9.251,15.67-17.161,25.781-23.233
		c9.321-5.595,19.378-8.664,30.251-8.927c12.924-0.313,25.513,1.388,37.514,6.471c13.741,5.819,24.607,15.328,33.193,27.247
		c9.034,12.542,17.471,25.524,25.953,38.455c11.054,16.849,23.914,32.032,39.057,45.418c16.008,14.156,28.68,30.942,36.524,51.004
		c7.766,19.861,9.774,40.064,2.299,60.508c-5.959,16.296-17.005,28.354-31.764,37.188c-8.64,5.17-17.896,8.499-27.952,9.5
		c-0.513,0.051-1.01,0.292-1.514,0.446c-4.656,0-9.314,0-13.974,0c-0.594-0.152-1.183-0.341-1.784-0.451
		c-7.553-1.393-15.185-2.443-22.646-4.228c-14.682-3.511-29.203-7.712-43.919-11.08c-11.274-2.578-22.802-3.624-34.405-2.819
		c-11.926,0.827-23.501,3.558-35.038,6.537c-12.888,3.325-25.777,6.668-38.753,9.619c-5.712,1.299-11.641,1.644-17.471,2.422
		C153.896,476.033,152.104,476.033,150.312,476.033z"/>
	<path fill-rule="evenodd" clip-rule="evenodd" d="M348.384,22.967c1.198,0.266,2.395,0.549,3.597,0.792
		c17.054,3.451,28.378,14.147,36.053,29.084c8.533,16.607,10.48,34.415,8.376,52.742c-2.133,18.542-8.363,35.623-19.312,50.805
		c-8.528,11.825-19.06,21.371-32.912,26.629c-20.66,7.842-40.71,2.666-54.976-14.21c-9.98-11.81-14.779-25.842-16.436-40.976
		c-2.433-22.228,1.779-43.301,12.164-63.06c7.149-13.608,16.82-25.085,30.023-33.278c6.834-4.24,14.174-7.168,22.235-8.08
		c0.515-0.057,1.009-0.296,1.513-0.449C341.935,22.967,345.161,22.967,348.384,22.967z"/>
	<path fill-rule="evenodd" clip-rule="evenodd" d="M503.705,207.849c-0.486,2.884-0.896,5.783-1.475,8.649
		c-5.046,25.012-17.66,45.106-39.171,59.135c-10.563,6.886-22.232,10.719-35.035,9.775c-16.91-1.246-29.261-9.699-37.158-24.564
		c-6.414-12.074-8.133-25.069-6.521-38.531c3.012-25.176,14.307-45.869,34.168-61.648c10.676-8.482,22.829-13.867,36.68-14.023
		c20.177-0.229,34.297,9.456,42.917,27.459c2.921,6.098,4.515,12.585,5.097,19.325c0.062,0.697,0.327,1.375,0.498,2.062
		C503.705,199.607,503.705,203.728,503.705,207.849z"/>
	<path fill-rule="evenodd" clip-rule="evenodd" d="M9.257,196.563c1.082-5.231,1.675-10.62,3.332-15.662
		c5.49-16.702,15.725-28.992,33.45-33.514c11.92-3.04,23.312-0.789,34.023,4.735c19.167,9.879,31.393,25.856,38.795,45.727
		c6.724,18.046,8.171,36.441,1.669,54.845C114.86,268.735,104.42,280.3,87.3,284.355c-11.99,2.837-23.438,0.485-34.253-5.138
		c-15.674-8.151-26.59-20.839-34.326-36.46c-4.879-9.854-8.021-20.24-9.016-31.232c-0.047-0.519-0.293-1.018-0.447-1.527
		C9.257,205.52,9.257,201.041,9.257,196.563z"/>
	<path fill-rule="evenodd" clip-rule="evenodd" d="M112.922,102.176c-0.028-20.47,2.533-33.827,8.667-46.329
		c6.037-12.307,14.632-22.274,27.552-27.763c12.37-5.258,24.804-4.852,36.994,0.576c17.105,7.617,28.5,21.023,36.499,37.466
		c9.482,19.493,12.811,40.102,9.653,61.609c-2.257,15.372-7.688,29.454-18.514,40.91c-17.02,18.008-41.202,20.435-62.479,6.406
		c-13.657-9.004-22.931-21.681-29.427-36.454C115.857,124.928,113,110.532,112.922,102.176z"/>
</g>
</svg>
